<?xml version="1.0" encoding="UTF-8"?>
<svg width="22px" height="22px" viewBox="0 0 22 22" version="1.1" xmlns="http://www.w3.org/2000/svg" xmlns:xlink="http://www.w3.org/1999/xlink">
    <!-- Generator: Sketch 55.1 (78136) - https://sketchapp.com -->
    <title>vulme1</title>
    <desc>Created with Sketch.</desc>
    <g id="页面1" stroke="none" stroke-width="1" fill="none" fill-rule="evenodd">
        <g id="vulme1" fill="#FFFFFF" fill-rule="nonzero">
            <g id="音量" transform="translate(4.000000, 6.000000)">
                <path d="M3.08046634,2.44529145 L1.00070888,2.44529145 C0.468526045,2.42406944 0.0212312684,2.8370825 1.95917107e-13,3.36926534 L1.95917107e-13,7.27574854 C-0.00162320916,7.80793138 0.427714477,8.24053399 0.959897313,8.24216645 C0.974589477,8.24216645 0.990914104,8.24216645 1.00560627,8.24053399 L3.01516784,8.24053399 L6.24254657,10.5145545 C6.74534507,10.8590041 7.17468276,10.6533138 7.17468276,10.1701049 L7.17468276,0.515720559 C7.17141784,0.0325116038 6.73881522,-0.173178695 6.30947754,0.171270932 L3.08046634,2.44529145 Z M8.82510254,6.8578381 C8.57696821,7.05699854 8.5377891,7.41940526 8.73694955,7.66753959 C8.76306896,7.70018884 8.79245328,7.72957317 8.82510254,7.75569257 C9.13037306,8.03157877 9.59562493,8.03157877 9.90252791,7.75569257 C11.1578917,6.72397616 11.3407275,4.86949854 10.3090111,3.61413474 C10.1865764,3.46394817 10.0494496,3.32845377 9.89926298,3.20601907 L9.90252791,3.20601907 C9.59725739,2.93013287 9.13200552,2.93013287 8.82510254,3.20601907 C8.57696821,3.40517951 8.53942157,3.76758623 8.73858201,4.01572056 C8.76470142,4.04836981 8.79408575,4.07612168 8.82510254,4.10224108 C9.58583015,4.7356366 9.69030776,5.86856571 9.05527978,6.62929332 C8.98671634,6.71091645 8.90835813,6.7876422 8.82510254,6.8578381 L8.82510254,6.8578381 Z" id="形状"></path>
            </g>
            <rect id="矩形备份-25" fill-opacity="0.01" x="0" y="0" width="22" height="22"></rect>
        </g>
    </g>
</svg>